<svg width="16" height="14" viewBox="0 0 16 14" fill="none" xmlns="http://www.w3.org/2000/svg">
<g filter="url(#filter0_b_2514_26362)">
<path d="M11.5156 0C10.0391 0 8.75516 0.665859 8 1.78172C7.24484 0.665859 5.96094 0 4.48438 0C3.36589 0.00130262 2.29359 0.446195 1.50271 1.23708C0.71182 2.02797 0.266928 3.10027 0.265625 4.21875C0.265625 6.27188 1.54531 8.40867 4.06953 10.5687C5.22621 11.5543 6.47563 12.4255 7.80031 13.1702C7.8617 13.2032 7.93031 13.2205 8 13.2205C8.06969 13.2205 8.1383 13.2032 8.19969 13.1702C9.52437 12.4255 10.7738 11.5543 11.9305 10.5687C14.4547 8.40867 15.7344 6.27188 15.7344 4.21875C15.7331 3.10027 15.2882 2.02797 14.4973 1.23708C13.7064 0.446195 12.6341 0.00130262 11.5156 0ZM8 12.3124C6.84617 11.6466 1.10938 8.13656 1.10938 4.21875C1.11031 3.32393 1.46618 2.46603 2.09892 1.83329C2.73165 1.20056 3.58956 0.844681 4.48438 0.84375C5.91031 0.84375 7.10773 1.60523 7.60977 2.83148C7.64155 2.90886 7.69562 2.97504 7.7651 3.02162C7.83459 3.06819 7.91635 3.09306 8 3.09306C8.08365 3.09306 8.16541 3.06819 8.2349 3.02162C8.30438 2.97504 8.35845 2.90886 8.39023 2.83148C8.89227 1.60523 10.0897 0.84375 11.5156 0.84375C12.4104 0.844681 13.2683 1.20056 13.9011 1.83329C14.5338 2.46603 14.8897 3.32393 14.8906 4.21875C14.8906 8.13656 9.15383 11.6466 8 12.3124Z" fill="white" fill-opacity="0.76"/>
<path d="M8 12.3124C6.84617 11.6466 1.10938 8.13656 1.10938 4.21875C1.11031 3.32393 1.46618 2.46603 2.09892 1.83329C2.73165 1.20056 3.58956 0.844681 4.48438 0.84375C5.91031 0.84375 7.10773 1.60523 7.60977 2.83148C7.64155 2.90886 7.69562 2.97504 7.7651 3.02162C7.83459 3.06819 7.91635 3.09306 8 3.09306C8.08365 3.09306 8.16541 3.06819 8.2349 3.02162C8.30438 2.97504 8.35845 2.90886 8.39023 2.83148C8.89227 1.60523 10.0897 0.84375 11.5156 0.84375C12.4104 0.844681 13.2683 1.20056 13.9011 1.83329C14.5338 2.46603 14.8897 3.32393 14.8906 4.21875C14.8906 8.13656 9.15383 11.6466 8 12.3124Z" fill="white" fill-opacity="0.76"/>
</g>
<defs>
<filter id="filter0_b_2514_26362" x="-3.73438" y="-4" width="23.4688" height="21.2207" filterUnits="userSpaceOnUse" color-interpolation-filters="sRGB">
<feFlood flood-opacity="0" result="BackgroundImageFix"/>
<feGaussianBlur in="BackgroundImageFix" stdDeviation="2"/>
<feComposite in2="SourceAlpha" operator="in" result="effect1_backgroundBlur_2514_26362"/>
<feBlend mode="normal" in="SourceGraphic" in2="effect1_backgroundBlur_2514_26362" result="shape"/>
</filter>
</defs>
</svg>
