<svg width="40" height="40" viewBox="0 0 40 40" fill="none" xmlns="http://www.w3.org/2000/svg">
<circle cx="20" cy="20" r="20" fill="#FAA727"/>
<g clip-path="url(#clip0_17_25)">
<path d="M20 12.5C15.8594 12.5 12.5 15.8594 12.5 20C12.5 24.1406 15.8594 27.5 20 27.5C20.6914 27.5 21.25 28.0586 21.25 28.75C21.25 29.4414 20.6914 30 20 30C14.4766 30 10 25.5234 10 20C10 14.4766 14.4766 10 20 10C25.5234 10 30 14.4766 30 20V21.25C30 23.3203 28.3203 25 26.25 25C25.1055 25 24.0781 24.4844 23.3906 23.6758C22.5 24.4961 21.3086 25 20 25C17.2383 25 15 22.7617 15 20C15 17.2383 17.2383 15 20 15C21.0898 15 22.0977 15.3477 22.918 15.9414C23.1406 15.7461 23.4297 15.625 23.75 15.625C24.4414 15.625 25 16.1836 25 16.875V20V21.25C25 21.9414 25.5586 22.5 26.25 22.5C26.9414 22.5 27.5 21.9414 27.5 21.25V20C27.5 15.8594 24.1406 12.5 20 12.5ZM22.5 20C22.5 19.337 22.2366 18.7011 21.7678 18.2322C21.2989 17.7634 20.663 17.5 20 17.5C19.337 17.5 18.7011 17.7634 18.2322 18.2322C17.7634 18.7011 17.5 19.337 17.5 20C17.5 20.663 17.7634 21.2989 18.2322 21.7678C18.7011 22.2366 19.337 22.5 20 22.5C20.663 22.5 21.2989 22.2366 21.7678 21.7678C22.2366 21.2989 22.5 20.663 22.5 20Z" fill="white"/>
</g>
<defs>
<clipPath id="clip0_17_25">
<rect width="20" height="20" fill="white" transform="translate(10 10)"/>
</clipPath>
</defs>
</svg>
