<svg width="40" height="40" viewBox="0 0 40 40" fill="none" xmlns="http://www.w3.org/2000/svg">
<circle cx="20" cy="20" r="20" fill="#37BC4A"/>
<g clip-path="url(#clip0_17_21)">
<path d="M27.7049 12.1969C25.6473 10.1344 22.9071 8.99998 19.9951 8.99998C13.9844 8.99998 9.0933 13.8911 9.0933 19.9018C9.0933 21.8219 9.5942 23.6978 10.5469 25.3527L9 31L14.7799 29.4826C16.371 30.3518 18.1634 30.8085 19.9902 30.8085H19.9951C26.0009 30.8085 31 25.9174 31 19.9067C31 16.9946 29.7625 14.2594 27.7049 12.1969ZM19.9951 28.9719C18.3647 28.9719 16.7687 28.5348 15.379 27.7098L15.05 27.5134L11.6223 28.412L12.5357 25.0678L12.3196 24.7241C11.4112 23.2803 10.9348 21.6156 10.9348 19.9018C10.9348 14.9076 15.0009 10.8415 20 10.8415C22.421 10.8415 24.6946 11.7844 26.4036 13.4982C28.1125 15.212 29.1634 17.4857 29.1585 19.9067C29.1585 24.9058 24.9893 28.9719 19.9951 28.9719ZM24.9647 22.1853C24.6946 22.0478 23.354 21.3897 23.1036 21.3013C22.8531 21.208 22.6714 21.1638 22.4897 21.4388C22.308 21.7138 21.7875 22.3228 21.6254 22.5094C21.4683 22.6911 21.3062 22.7156 21.0362 22.5781C19.4353 21.7777 18.3844 21.1491 17.3286 19.337C17.0487 18.8558 17.6085 18.8902 18.129 17.8491C18.2174 17.6674 18.1732 17.5103 18.1045 17.3728C18.0357 17.2353 17.4906 15.8946 17.2647 15.3495C17.0437 14.8192 16.8179 14.8928 16.6509 14.883C16.4938 14.8732 16.3121 14.8732 16.1304 14.8732C15.9487 14.8732 15.654 14.9419 15.4036 15.212C15.1531 15.487 14.4509 16.1451 14.4509 17.4857C14.4509 18.8263 15.4281 20.1228 15.5607 20.3044C15.6982 20.4861 17.4808 23.2361 20.2161 24.4196C21.9446 25.1661 22.6223 25.2299 23.4866 25.1022C24.0121 25.0236 25.0973 24.4442 25.3232 23.8058C25.5491 23.1674 25.5491 22.6223 25.4804 22.5094C25.4165 22.3866 25.2348 22.3178 24.9647 22.1853Z" fill="white"/>
</g>
<defs>
<clipPath id="clip0_17_21">
<rect width="22" height="22" fill="white" transform="translate(9 8.99998)"/>
</clipPath>
</defs>
</svg>
