<svg width="18" height="18" viewBox="0 0 18 18" fill="none" xmlns="http://www.w3.org/2000/svg">
<path d="M16.5 6.74965V11.2496C16.5 13.1246 16.125 14.4371 15.285 15.2846L10.5 10.4996L16.2975 4.70215C16.4325 5.29465 16.5 5.96965 16.5 6.74965Z" stroke="#2C2E35" stroke-linecap="round" stroke-linejoin="round"/>
<path d="M16.2975 4.7025L4.70249 16.2975C2.44499 15.78 1.5 14.22 1.5 11.25V6.75C1.5 3 3 1.5 6.75 1.5H11.25C14.22 1.5 15.78 2.445 16.2975 4.7025Z" stroke="#2C2E35" stroke-linecap="round" stroke-linejoin="round"/>
<path d="M15.2856 15.285C14.4381 16.125 13.1256 16.5 11.2506 16.5H6.75063C5.97063 16.5 5.29563 16.4325 4.70312 16.2975L10.5006 10.5L15.2856 15.285Z" stroke="#2C2E35" stroke-linecap="round" stroke-linejoin="round"/>
<path d="M4.68093 5.98504C5.19093 3.78754 8.49094 3.78754 9.00094 5.98504C9.29344 7.27504 8.48343 8.37004 7.77093 9.04504C7.25343 9.54004 6.43594 9.54004 5.91094 9.04504C5.19844 8.37004 4.38093 7.27504 4.68093 5.98504Z" stroke="#2C2E35"/>
<path d="M6.8201 6.52539H6.82684" stroke="#2C2E35" stroke-linecap="round" stroke-linejoin="round"/>
</svg>
