<svg width="19" height="18" viewBox="0 0 19 18" fill="none" xmlns="http://www.w3.org/2000/svg">
<path d="M2.75781 8.41504V11.7825C2.75781 15.15 4.10781 16.5 7.47531 16.5H11.5178C14.8853 16.5 16.2353 15.15 16.2353 11.7825V8.41504" stroke="#4B98FF" stroke-linecap="round" stroke-linejoin="round"/>
<path d="M9.50036 9C10.8729 9 11.8854 7.8825 11.7504 6.51L11.2554 1.5H7.75286L7.25036 6.51C7.11536 7.8825 8.12786 9 9.50036 9Z" stroke="#4B98FF" stroke-linecap="round" stroke-linejoin="round"/>
<path d="M14.2321 9C15.7471 9 16.8571 7.77 16.7071 6.2625L16.4971 4.2C16.2271 2.25 15.4771 1.5 13.5121 1.5H11.2246L11.7496 6.7575C11.8771 7.995 12.9946 9 14.2321 9Z" stroke="#4B98FF" stroke-linecap="round" stroke-linejoin="round"/>
<path d="M4.73077 9C5.96827 9 7.08577 7.995 7.20577 6.7575L7.37077 5.1L7.73077 1.5H5.44327C3.47827 1.5 2.72827 2.25 2.45827 4.2L2.25577 6.2625C2.10577 7.77 3.21577 9 4.73077 9Z" stroke="#4B98FF" stroke-linecap="round" stroke-linejoin="round"/>
<path d="M9.5 12.75C8.2475 12.75 7.625 13.3725 7.625 14.625V16.5H11.375V14.625C11.375 13.3725 10.7525 12.75 9.5 12.75Z" stroke="#4B98FF" stroke-linecap="round" stroke-linejoin="round"/>
</svg>
