<svg width="19" height="18" viewBox="0 0 19 18" fill="none" xmlns="http://www.w3.org/2000/svg">
<path d="M2 11.25H14.375C15.8225 11.25 17 12.4275 17 13.875C17 15.3225 15.8225 16.5 14.375 16.5C12.9275 16.5 11.75 15.3225 11.75 13.875V13.5" stroke="#4B98FF" stroke-miterlimit="10" stroke-linecap="round" stroke-linejoin="round"/>
<path d="M2 9H14.375C15.815 9 17 7.8225 17 6.375C17 4.935 15.815 3.75 14.375 3.75C12.935 3.75 11.75 4.9275 11.75 6.375V6.75" stroke="#4B98FF" stroke-miterlimit="10" stroke-linecap="round" stroke-linejoin="round"/>
<path d="M2 6.74984H7.4825C8.6 6.74984 9.5 5.84234 9.5 4.73234C9.5 3.61484 8.5925 2.71484 7.4825 2.71484C6.365 2.71484 5.465 3.62234 5.465 4.73234V5.01734" stroke="#4B98FF" stroke-miterlimit="10" stroke-linecap="round" stroke-linejoin="round"/>
</svg>
